<svg width="65" height="60" viewBox="0 0 65 60" fill="none" xmlns="http://www.w3.org/2000/svg">
<g id="advance filter">
<rect id="Rectangle 6330" x="0.5" y="0.5" width="64" height="59" rx="4.5" stroke="#BDBDBD"/>
<g id="icon">
<path id="Vector" d="M37.2793 28.7115C38.0065 27.0069 39.2042 26.0016 41.0008 26.0016C42.6691 25.9579 43.7813 26.7884 44.8079 28.7115C45.749 28.7115 46.6473 28.7115 47.5884 28.7115C48.4439 28.7115 49 29.2359 49 29.979C49 30.722 48.4011 31.2465 47.5884 31.2465C46.7756 31.2465 45.9629 31.2465 45.1073 31.2465C44.8935 31.2465 44.7651 31.2902 44.6368 31.5524C43.9096 33.1259 42.7119 34 41.0436 34C39.3325 34 38.1348 33.1259 37.4504 31.5961C37.322 31.2902 37.1509 31.2902 36.8943 31.2902C30.7772 31.2902 24.6602 31.2902 18.5432 31.2902C18.3293 31.2902 18.1154 31.2902 17.9443 31.2465C17.3454 31.0716 16.9605 30.5034 17.0032 29.8915C17.0888 29.2359 17.5593 28.7552 18.201 28.7115C18.3293 28.7115 18.5004 28.7115 18.6287 28.7115C24.703 28.7115 30.7772 28.7115 36.8087 28.7115C36.9798 28.7115 37.1082 28.7115 37.2793 28.7115ZM41.0436 31.4213C41.8563 31.4213 42.4552 30.8094 42.498 29.979C42.498 29.1922 41.8563 28.4929 41.0864 28.4929C40.3164 28.4929 39.632 29.1485 39.632 29.9353C39.5892 30.7657 40.2736 31.4213 41.0436 31.4213Z" fill="#BDBDBD"/>
<path id="Vector_2" d="M38.3333 18.6162C35.2613 18.6162 32.1893 18.6162 29.1173 18.6162C28.8187 18.6162 28.648 18.6919 28.52 18.9568C27.7947 20.2811 26.6 21 24.9787 21C23.3147 21 22.12 20.2811 21.3947 18.9189C21.2667 18.6919 21.1387 18.6162 20.8827 18.6162C20.072 18.6162 19.2613 18.6162 18.408 18.6162C17.5973 18.6162 17.0427 18.1622 17 17.5189C17 16.8757 17.5547 16.4216 18.408 16.3838C19.2613 16.3838 20.072 16.3838 20.9253 16.3838C21.1387 16.3838 21.2667 16.3459 21.352 16.1189C22.0347 14.7568 23.272 14 24.936 14C26.6427 14 27.8373 14.7568 28.5627 16.1189C28.6907 16.3459 28.8187 16.3459 29.032 16.3459C31.6347 16.3459 34.1947 16.3459 36.7973 16.3459C40.3387 16.3459 43.8373 16.3459 47.3787 16.3459C47.592 16.3459 47.8053 16.3459 48.0187 16.3838C48.5733 16.4973 49 16.9892 49 17.4811C49 18.0108 48.5307 18.4649 47.976 18.5405C47.8053 18.5784 47.592 18.5784 47.3787 18.5784C44.3493 18.6162 41.32 18.6162 38.3333 18.6162ZM23.528 17.4432C23.4853 18.1243 24.0827 18.7297 24.8933 18.7676C25.6613 18.8054 26.344 18.2378 26.3867 17.5568C26.4293 16.8757 25.7893 16.2703 25.0213 16.2324C24.2533 16.1946 23.5707 16.7622 23.528 17.4432Z" fill="#BDBDBD"/>
<path id="Vector_3" d="M41.0534 43.5902C38.8745 43.5902 36.7383 43.5902 34.5594 43.5902C34.2603 43.5902 34.0895 43.6667 33.9186 43.9344C33.1923 45.2732 31.996 46 30.3298 46C28.7063 46 27.4673 45.2732 26.7837 43.9344C26.6555 43.7049 26.5274 43.6284 26.2283 43.6284C23.7076 43.6284 21.2296 43.6284 18.7089 43.6284C18.5808 43.6284 18.4953 43.6284 18.3672 43.6284C17.5981 43.5902 17.0427 43.1694 17 42.5191C17 41.8689 17.5554 41.4098 18.3672 41.4098C20.9733 41.4098 23.5794 41.4098 26.1429 41.4098C26.4419 41.4098 26.6128 41.3333 26.741 41.0656C27.4673 39.7268 28.6636 39 30.287 39C31.9105 39 33.1068 39.7268 33.8331 41.0273C34.004 41.3333 34.1749 41.4098 34.5167 41.4098C38.7891 41.4098 43.0614 41.4098 47.3765 41.4098C48.4019 41.4098 48.9573 41.7923 49 42.5191C49 43.2459 48.4019 43.6667 47.3765 43.6667C45.3258 43.5902 43.1896 43.5902 41.0534 43.5902ZM31.8251 42.4809C31.8251 41.7923 31.1842 41.2186 30.4152 41.1803C29.6462 41.1803 29.0053 41.7541 29.0053 42.4426C29.0053 43.1311 29.6462 43.7432 30.4152 43.7432C31.1415 43.7814 31.8251 43.1694 31.8251 42.4809Z" fill="#BDBDBD"/>
</g>
</g>
</svg>
